<mxfile host="app.diagrams.net" modified="2023-10-05T17:38:14.507Z" agent="Mozilla/5.0 (Windows NT 10.0; Win64; x64) AppleWebKit/537.36 (KHTML, like Gecko) Chrome/117.0.0.0 Safari/537.36" etag="2JVjSbKHBgR2QxaLIXBT" version="22.0.2" type="device">
  <diagram name="Página-1" id="QMk_BkWHIhaUfxKSDwPo">
    <mxGraphModel dx="1050" dy="534" grid="1" gridSize="10" guides="1" tooltips="1" connect="1" arrows="1" fold="1" page="1" pageScale="1" pageWidth="827" pageHeight="1169" math="0" shadow="0">
      <root>
        <mxCell id="0" />
        <mxCell id="1" parent="0" />
        <mxCell id="qL5YCP_hIfOfhx25K2h5-21" value="" style="rounded=0;whiteSpace=wrap;html=1;" parent="1" vertex="1">
          <mxGeometry x="354" y="10" width="476" height="530" as="geometry" />
        </mxCell>
        <mxCell id="lpV6DzkD0fxLr55ToDHL-1" value="Usuário" style="shape=umlActor;verticalLabelPosition=bottom;verticalAlign=top;html=1;" parent="1" vertex="1">
          <mxGeometry x="140" y="280" width="30" height="60" as="geometry" />
        </mxCell>
        <mxCell id="lpV6DzkD0fxLr55ToDHL-2" value="Realizar o login" style="ellipse;whiteSpace=wrap;html=1;align=center;" parent="1" vertex="1">
          <mxGeometry x="489" y="90" width="100" height="40" as="geometry" />
        </mxCell>
        <mxCell id="lpV6DzkD0fxLr55ToDHL-16" value="Manter os clientes" style="ellipse;whiteSpace=wrap;html=1;align=center;" parent="1" vertex="1">
          <mxGeometry x="700" y="290" width="100" height="40" as="geometry" />
        </mxCell>
        <mxCell id="lpV6DzkD0fxLr55ToDHL-17" value="Fazer doações para ONGs" style="ellipse;whiteSpace=wrap;html=1;align=center;" parent="1" vertex="1">
          <mxGeometry x="489" y="190" width="100" height="40" as="geometry" />
        </mxCell>
        <mxCell id="lpV6DzkD0fxLr55ToDHL-19" value="Cadastrar os animais" style="ellipse;whiteSpace=wrap;html=1;align=center;" parent="1" vertex="1">
          <mxGeometry x="489" y="140" width="100" height="40" as="geometry" />
        </mxCell>
        <mxCell id="lpV6DzkD0fxLr55ToDHL-20" value="Acessar os sites das ONGs" style="ellipse;whiteSpace=wrap;html=1;align=center;" parent="1" vertex="1">
          <mxGeometry x="444" y="290" width="190" height="40" as="geometry" />
        </mxCell>
        <mxCell id="lpV6DzkD0fxLr55ToDHL-21" value="Visualizar as informações" style="ellipse;whiteSpace=wrap;html=1;align=center;" parent="1" vertex="1">
          <mxGeometry x="489" y="240" width="100" height="40" as="geometry" />
        </mxCell>
        <mxCell id="lpV6DzkD0fxLr55ToDHL-22" value="&lt;span id=&quot;docs-internal-guid-07e33cf2-7fff-8061-86e5-b649b242f8fd&quot;&gt;&lt;/span&gt;&lt;span id=&quot;docs-internal-guid-07e33cf2-7fff-8061-86e5-b649b242f8fd&quot;&gt;&lt;/span&gt;&lt;span id=&quot;docs-internal-guid-07e33cf2-7fff-8061-86e5-b649b242f8fd&quot;&gt;&lt;/span&gt;&lt;span id=&quot;docs-internal-guid-07e33cf2-7fff-8061-86e5-b649b242f8fd&quot;&gt;&lt;/span&gt;Cadastrar o usuário" style="ellipse;whiteSpace=wrap;html=1;align=center;" parent="1" vertex="1">
          <mxGeometry x="489" y="40" width="100" height="40" as="geometry" />
        </mxCell>
        <mxCell id="lpV6DzkD0fxLr55ToDHL-23" value="Acessar as informações dos criadores" style="ellipse;whiteSpace=wrap;html=1;align=center;" parent="1" vertex="1">
          <mxGeometry x="443" y="460" width="191" height="50" as="geometry" />
        </mxCell>
        <mxCell id="lpV6DzkD0fxLr55ToDHL-25" value="Acessar as informações cadastradas" style="ellipse;whiteSpace=wrap;html=1;align=center;" parent="1" vertex="1">
          <mxGeometry x="458.5" y="340" width="161" height="50" as="geometry" />
        </mxCell>
        <mxCell id="lpV6DzkD0fxLr55ToDHL-26" value="Acessar as informações das ONGs" style="ellipse;whiteSpace=wrap;html=1;align=center;" parent="1" vertex="1">
          <mxGeometry x="454.5" y="400" width="170" height="50" as="geometry" />
        </mxCell>
        <mxCell id="qL5YCP_hIfOfhx25K2h5-22" value="Site" style="text;strokeColor=none;align=center;fillColor=none;html=1;verticalAlign=middle;whiteSpace=wrap;rounded=0;fontSize=16;" parent="1" vertex="1">
          <mxGeometry x="710" y="30" width="60" height="30" as="geometry" />
        </mxCell>
        <mxCell id="qL5YCP_hIfOfhx25K2h5-25" value="" style="endArrow=none;html=1;rounded=0;entryX=0;entryY=0.5;entryDx=0;entryDy=0;" parent="1" target="lpV6DzkD0fxLr55ToDHL-22" edge="1">
          <mxGeometry width="50" height="50" relative="1" as="geometry">
            <mxPoint x="190" y="300" as="sourcePoint" />
            <mxPoint x="240" y="250" as="targetPoint" />
          </mxGeometry>
        </mxCell>
        <mxCell id="qL5YCP_hIfOfhx25K2h5-26" value="" style="endArrow=none;html=1;rounded=0;entryX=0;entryY=0.5;entryDx=0;entryDy=0;" parent="1" target="lpV6DzkD0fxLr55ToDHL-2" edge="1">
          <mxGeometry width="50" height="50" relative="1" as="geometry">
            <mxPoint x="190" y="300" as="sourcePoint" />
            <mxPoint x="240" y="290" as="targetPoint" />
          </mxGeometry>
        </mxCell>
        <mxCell id="qL5YCP_hIfOfhx25K2h5-28" value="" style="endArrow=none;html=1;rounded=0;entryX=0;entryY=0.5;entryDx=0;entryDy=0;" parent="1" target="lpV6DzkD0fxLr55ToDHL-19" edge="1">
          <mxGeometry width="50" height="50" relative="1" as="geometry">
            <mxPoint x="190" y="300" as="sourcePoint" />
            <mxPoint x="270" y="280" as="targetPoint" />
          </mxGeometry>
        </mxCell>
        <mxCell id="qL5YCP_hIfOfhx25K2h5-29" value="" style="endArrow=none;html=1;rounded=0;entryX=0;entryY=0.5;entryDx=0;entryDy=0;" parent="1" target="lpV6DzkD0fxLr55ToDHL-17" edge="1">
          <mxGeometry width="50" height="50" relative="1" as="geometry">
            <mxPoint x="190" y="300" as="sourcePoint" />
            <mxPoint x="280" y="285" as="targetPoint" />
          </mxGeometry>
        </mxCell>
        <mxCell id="qL5YCP_hIfOfhx25K2h5-30" value="" style="endArrow=none;html=1;rounded=0;entryX=0;entryY=0.5;entryDx=0;entryDy=0;" parent="1" target="lpV6DzkD0fxLr55ToDHL-21" edge="1">
          <mxGeometry width="50" height="50" relative="1" as="geometry">
            <mxPoint x="190" y="300" as="sourcePoint" />
            <mxPoint x="260" y="310" as="targetPoint" />
          </mxGeometry>
        </mxCell>
        <mxCell id="qL5YCP_hIfOfhx25K2h5-31" value="" style="endArrow=none;html=1;rounded=0;entryX=0;entryY=0.5;entryDx=0;entryDy=0;" parent="1" target="lpV6DzkD0fxLr55ToDHL-20" edge="1">
          <mxGeometry width="50" height="50" relative="1" as="geometry">
            <mxPoint x="190" y="300" as="sourcePoint" />
            <mxPoint x="300" y="320" as="targetPoint" />
          </mxGeometry>
        </mxCell>
        <mxCell id="qL5YCP_hIfOfhx25K2h5-32" value="" style="endArrow=none;html=1;rounded=0;entryX=0;entryY=0.5;entryDx=0;entryDy=0;" parent="1" target="lpV6DzkD0fxLr55ToDHL-25" edge="1">
          <mxGeometry width="50" height="50" relative="1" as="geometry">
            <mxPoint x="190" y="300" as="sourcePoint" />
            <mxPoint x="280" y="340" as="targetPoint" />
          </mxGeometry>
        </mxCell>
        <mxCell id="qL5YCP_hIfOfhx25K2h5-33" value="" style="endArrow=none;html=1;rounded=0;entryX=0;entryY=0.5;entryDx=0;entryDy=0;" parent="1" target="lpV6DzkD0fxLr55ToDHL-26" edge="1">
          <mxGeometry width="50" height="50" relative="1" as="geometry">
            <mxPoint x="190" y="300" as="sourcePoint" />
            <mxPoint x="310" y="400" as="targetPoint" />
          </mxGeometry>
        </mxCell>
        <mxCell id="qL5YCP_hIfOfhx25K2h5-34" value="" style="endArrow=none;html=1;rounded=0;entryX=0;entryY=0.5;entryDx=0;entryDy=0;" parent="1" target="lpV6DzkD0fxLr55ToDHL-23" edge="1">
          <mxGeometry width="50" height="50" relative="1" as="geometry">
            <mxPoint x="190" y="300" as="sourcePoint" />
            <mxPoint x="300" y="400" as="targetPoint" />
          </mxGeometry>
        </mxCell>
        <mxCell id="qL5YCP_hIfOfhx25K2h5-37" style="edgeStyle=orthogonalEdgeStyle;rounded=0;orthogonalLoop=1;jettySize=auto;html=1;exitX=0.5;exitY=1;exitDx=0;exitDy=0;" parent="1" source="qL5YCP_hIfOfhx25K2h5-21" target="qL5YCP_hIfOfhx25K2h5-21" edge="1">
          <mxGeometry relative="1" as="geometry" />
        </mxCell>
        <mxCell id="qL5YCP_hIfOfhx25K2h5-38" value="Programador" style="shape=umlActor;verticalLabelPosition=bottom;verticalAlign=top;html=1;" parent="1" vertex="1">
          <mxGeometry x="910" y="280" width="30" height="60" as="geometry" />
        </mxCell>
        <mxCell id="qL5YCP_hIfOfhx25K2h5-39" value="" style="endArrow=none;html=1;rounded=0;exitX=1;exitY=0.5;exitDx=0;exitDy=0;" parent="1" source="lpV6DzkD0fxLr55ToDHL-16" edge="1">
          <mxGeometry width="50" height="50" relative="1" as="geometry">
            <mxPoint x="820" y="320" as="sourcePoint" />
            <mxPoint x="890" y="310" as="targetPoint" />
          </mxGeometry>
        </mxCell>
        <mxCell id="qL5YCP_hIfOfhx25K2h5-46" value="" style="html=1;verticalAlign=bottom;endArrow=open;dashed=1;endSize=8;curved=0;rounded=0;entryX=0;entryY=0;entryDx=0;entryDy=0;exitX=1;exitY=0.5;exitDx=0;exitDy=0;" parent="1" source="lpV6DzkD0fxLr55ToDHL-19" target="lpV6DzkD0fxLr55ToDHL-16" edge="1">
          <mxGeometry relative="1" as="geometry">
            <mxPoint x="714" y="350" as="sourcePoint" />
            <mxPoint x="634" y="350" as="targetPoint" />
          </mxGeometry>
        </mxCell>
        <mxCell id="qL5YCP_hIfOfhx25K2h5-48" value="include" style="edgeLabel;html=1;align=center;verticalAlign=middle;resizable=0;points=[];rotation=50;" parent="qL5YCP_hIfOfhx25K2h5-46" vertex="1" connectable="0">
          <mxGeometry x="-0.0366" y="1" relative="1" as="geometry">
            <mxPoint y="-15" as="offset" />
          </mxGeometry>
        </mxCell>
        <mxCell id="qL5YCP_hIfOfhx25K2h5-47" value="" style="html=1;verticalAlign=bottom;endArrow=open;dashed=1;endSize=8;curved=0;rounded=0;exitX=1;exitY=0.5;exitDx=0;exitDy=0;entryX=0;entryY=0.5;entryDx=0;entryDy=0;" parent="1" source="lpV6DzkD0fxLr55ToDHL-20" target="lpV6DzkD0fxLr55ToDHL-16" edge="1">
          <mxGeometry relative="1" as="geometry">
            <mxPoint x="650" y="290" as="sourcePoint" />
            <mxPoint x="700" y="310" as="targetPoint" />
          </mxGeometry>
        </mxCell>
        <mxCell id="qL5YCP_hIfOfhx25K2h5-49" value="include" style="edgeLabel;html=1;align=center;verticalAlign=middle;resizable=0;points=[];" parent="1" vertex="1" connectable="0">
          <mxGeometry x="680.0031503825226" y="189.9950333234" as="geometry">
            <mxPoint x="-20" y="110" as="offset" />
          </mxGeometry>
        </mxCell>
        <mxCell id="FI4vKG0_z5V8vTYWl1FK-1" value="" style="html=1;verticalAlign=bottom;endArrow=open;dashed=1;endSize=8;curved=0;rounded=0;exitX=1;exitY=0.5;exitDx=0;exitDy=0;" parent="1" target="lpV6DzkD0fxLr55ToDHL-16" edge="1">
          <mxGeometry relative="1" as="geometry">
            <mxPoint x="589" y="60" as="sourcePoint" />
            <mxPoint x="700" y="210" as="targetPoint" />
          </mxGeometry>
        </mxCell>
        <mxCell id="FI4vKG0_z5V8vTYWl1FK-2" value="include" style="edgeLabel;html=1;align=center;verticalAlign=middle;resizable=0;points=[];rotation=60;" parent="FI4vKG0_z5V8vTYWl1FK-1" vertex="1" connectable="0">
          <mxGeometry x="-0.0366" y="1" relative="1" as="geometry">
            <mxPoint x="29" y="20" as="offset" />
          </mxGeometry>
        </mxCell>
      </root>
    </mxGraphModel>
  </diagram>
</mxfile>
